# xmcd
#
# Track frame offsets:
#	150
#	23269
#	35683
#	58865
#	78764
#	86197
#	104051
#	118370
#	128395
#	142084
#	151238
#	160071
#	172420
#	205661
#
# Disc length: 2959 seconds
#
# Revision: 1
# Processed by: cddbd v1.4PL0 Copyright (c) Steve Scherf et al.
# Submitted via: audiograbber 1.80
#
DISCID=bd0b8d0e
DTITLE=Roy Buchanan - Record Plant Sessions - Outtakes
DYEAR=1900
DGENRE=
TTITLE0=Jam - Unititled
TTITLE1=I Hear You Knockin'
TTITLE2=Slow Blues - Untitled
TTITLE3=Honky Tonk - 1
TTITLE4=Honky Tonk - 2
TTITLE5=Honky Tonk - 3
TTITLE6=Raunchy - 1
TTITLE7=Raunchy - 2
TTITLE8=Lonesome Fugitive
TTITLE9=Suzie Q - 1
TTITLE10=Suzie Q - 2
TTITLE11=Haunted House
TTITLE12=Slow Blues - Untitled
TTITLE13=You Can't Judge A Book
EXTD=Recorded at the Record Plant East NYC 7-12-1972, this release is Ladyfinge
EXTD=r Records, 2001 Limited Edition, U.K. Import
EXTT0=
EXTT1=
EXTT2=
EXTT3=
EXTT4=
EXTT5=
EXTT6=
EXTT7=
EXTT8=
EXTT9=
EXTT10=
EXTT11=
EXTT12=
EXTT13=
PLAYORDER=
